<?xml version="1.0" encoding="UTF-8" standalone="no"?>
<svg
   xmlns:dc="http://purl.org/dc/elements/1.1/"
   xmlns:cc="http://creativecommons.org/ns#"
   xmlns:rdf="http://www.w3.org/1999/02/22-rdf-syntax-ns#"
   xmlns:svg="http://www.w3.org/2000/svg"
   xmlns="http://www.w3.org/2000/svg"
   xmlns:sodipodi="http://sodipodi.sourceforge.net/DTD/sodipodi-0.dtd"
   xmlns:inkscape="http://www.inkscape.org/namespaces/inkscape"
   aria-hidden="true"
   viewBox="0 0 700 700"
   version="1.1"
   id="svg30"
   sodipodi:docname="burger-king-logo-2021.svg"
   width="700"
   height="700"
   style="fill:none"
   inkscape:export-filename="C:\Users\suitedoalex\sites\burguer-king-logo-0.png"
   inkscape:export-xdpi="561.73712"
   inkscape:export-ydpi="561.73712"
   inkscape:version="0.92.4 (5da689c313, 2019-01-14)">
  <metadata
     id="metadata36">
    <rdf:RDF>
      <cc:Work
         rdf:about="">
        <dc:format>image/svg+xml</dc:format>
        <dc:type
           rdf:resource="http://purl.org/dc/dcmitype/StillImage" />
        <dc:title>Burger King Logo</dc:title>
      </cc:Work>
    </rdf:RDF>
  </metadata>
  <defs
     id="defs34" />
  <sodipodi:namedview
     pagecolor="#ffffff"
     bordercolor="#666666"
     borderopacity="1"
     objecttolerance="10"
     gridtolerance="10"
     guidetolerance="10"
     inkscape:pageopacity="0"
     inkscape:pageshadow="2"
     inkscape:window-width="1600"
     inkscape:window-height="837"
     id="namedview32"
     showgrid="false"
     inkscape:zoom="0.30729167"
     inkscape:cx="462.86864"
     inkscape:cy="573.84834"
     inkscape:window-x="-8"
     inkscape:window-y="-8"
     inkscape:window-maximized="1"
     inkscape:current-layer="svg30" />
  <title
     id="title2">Burger King Logo</title>
  <path
     d="m 512.37537,542.77005 c -31.90882,18.01181 -86.65102,23.16098 -162.3754,23.16098 -75.72437,0 -130.46605,-5.14917 -162.37486,-23.16098 -19.15203,-10.78496 -28.84623,-25.48881 -28.84623,-36.03046 0,-6.00393 3.19415,-9.43618 10.30671,-9.43618 h 361.82192 c 7.11941,0 10.30729,3.43225 10.30729,9.43618 0.006,10.54165 -9.68793,25.2455 -28.83943,36.03046 z M 530.90751,263.35267 H 169.08559 c -7.11256,0 -10.30671,-3.67556 -10.30671,-10.29148 0,-39.21939 59.03602,-108.459 191.22109,-108.459 130.96059,0 191.22115,69.23961 191.22115,108.459 0,6.61592 -3.1942,10.29148 -10.31361,10.29148 z"
     id="path6"
     inkscape:connector-curvature="0"
     style="fill:#ff8732;stroke-width:5.26661062"
     inkscape:export-filename="C:\Users\suitedoalex\sites\burguer-king-logo-4.png"
     inkscape:export-xdpi="175.7128"
     inkscape:export-ydpi="175.7128" />
  <path
     d="m 235.85304,425.12398 c -1.10652,-1.71638 -1.22501,-2.82132 -1.22501,-3.30795 0,-1.34773 0.73732,-2.32785 2.20618,-3.67557 3.43752,-3.18946 11.90728,-11.1531 16.56981,-18.38047 3.55654,-5.5173 5.03172,-10.54112 5.03172,-14.70385 0,-10.66015 -9.69425,-18.99824 -20.2517,-18.99824 -6.75021,0 -13.13229,3.80091 -17.42616,10.78443 -5.76904,9.3119 -12.6446,20.09686 -17.0575,24.39073 -1.10651,1.10493 -1.71849,1.34825 -2.57484,1.34825 -1.47518,0 -2.08769,-0.98011 -2.08769,-2.57116 v -12.25803 c 0,-12.00787 -7.1194,-21.69422 -20.00785,-21.69422 -13.00747,0 -20.00806,9.68003 -20.00806,21.69422 v 75.49317 c 0,12.00787 6.99427,21.69475 20.00806,21.69475 12.88845,0 20.00785,-9.68003 20.00785,-21.69475 v -17.39983 c 0,-1.47307 0.61251,-2.57168 2.08769,-2.57168 1.96234,0 2.45635,1.9597 2.94403,2.93982 2.82501,6.74021 11.04408,21.07645 18.6575,29.53304 5.15706,5.6358 11.53861,9.1934 18.28935,9.1934 11.41328,0 20.98903,-9.92967 20.98903,-20.58981 0,-6.61539 -2.82554,-11.52124 -8.22592,-17.40036 -6.87556,-7.49017 -14.97614,-17.29502 -17.92649,-21.82589 z"
     id="path8"
     inkscape:connector-curvature="0"
     style="fill:#d62300;stroke-width:5.26661062"
     inkscape:export-filename="C:\Users\suitedoalex\sites\burguer-king-logo-4.png"
     inkscape:export-xdpi="175.7128"
     inkscape:export-ydpi="175.7128" />
  <path
     d="m 388.90916,359.06752 c 19.27053,0 31.42113,-12.25803 31.42113,-30.14502 0,-11.39642 -6.87556,-19.24156 -20.62036,-19.24156 h -3.92521 c -7.24422,0 -12.88844,3.43277 -12.88844,11.1531 0,6.86555 6.01288,10.17298 10.55692,10.17298 2.33152,0 3.8067,0.7368 3.8067,2.45319 0,2.20302 -2.57484,3.67609 -5.5252,3.67609 -9.20709,0 -15.46382,-6.49741 -15.46382,-18.6301 0,-13.48095 8.59458,-18.37995 15.21998,-18.37995 8.10057,0 9.45093,4.16905 15.09463,4.16905 6.5069,0 10.92611,-5.39248 10.92611,-11.02828 0,-4.16905 -1.84384,-7.35166 -4.66253,-9.56153 -5.15707,-3.80091 -12.39497,-6.61539 -23.19573,-6.61539 -19.02669,0 -37.55936,12.50083 -37.55936,41.42242 -0.006,27.68551 18.52635,40.555 36.81518,40.555 z"
     id="path10"
     inkscape:connector-curvature="0"
     style="fill:#d62300;stroke-width:5.26661062"
     inkscape:export-filename="C:\Users\suitedoalex\sites\burguer-king-logo-4.png"
     inkscape:export-xdpi="175.7128"
     inkscape:export-ydpi="175.7128" />
  <path
     d="m 173.13614,358.33125 h 17.30766 c 16.32649,0 26.26458,-10.90978 26.26458,-24.50922 0,-10.90979 -6.50689,-15.93361 -7.97575,-17.15704 -0.61251,-0.49295 -1.22501,-0.97959 -1.22501,-1.47307 0,-0.61145 0.36918,-0.85477 0.98169,-1.59157 2.331,-2.69598 4.66253,-6.98353 4.66253,-13.23763 0,-14.70385 -9.94441,-22.54899 -25.40823,-22.54899 h -14.60747 c -9.69425,0 -14.35726,5.64212 -14.35726,13.23763 v 54.04227 c 0,7.60182 4.66301,13.23762 14.35726,13.23762 z m 7.24422,-59.43475 c 0,-1.59157 0.98169,-2.82132 3.06938,-2.82132 h 1.59368 c 5.27503,0 6.87556,3.67609 6.87556,6.86555 0,2.9393 -1.59368,7.10887 -6.87556,7.10887 h -1.59368 c -2.08769,0 -3.06938,-1.22343 -3.06938,-2.82132 z m 0,28.67827 c 0,-1.59157 0.98169,-2.82132 3.06938,-2.82132 h 2.20618 c 5.89439,0 7.60657,3.91941 7.60657,7.47701 0,3.18946 -1.71902,7.72032 -7.60657,7.72032 h -2.20618 c -2.08769,0 -3.06938,-1.22291 -3.06938,-2.8208 z"
     id="path12"
     inkscape:connector-curvature="0"
     style="fill:#d62300;stroke-width:5.26661062"
     inkscape:export-filename="C:\Users\suitedoalex\sites\burguer-king-logo-4.png"
     inkscape:export-xdpi="175.7128"
     inkscape:export-ydpi="175.7128" />
  <path
     d="m 493.59832,358.94271 c 7.85726,0 12.15112,-5.88597 12.15112,-13.23763 v -12.98799 c 0,-1.59157 0.73786,-2.32784 1.96234,-2.32784 1.47571,0 1.96287,0.85477 2.20671,2.32784 1.10599,6.24726 4.05003,14.70385 7.36272,18.99825 4.17537,5.5173 8.10058,7.23369 12.02578,7.23369 6.38208,0 11.90728,-5.02435 11.90728,-11.27792 0,-4.16905 -1.71902,-7.23369 -3.9252,-10.04817 -4.17537,-5.26766 -6.75022,-8.70044 -8.34442,-12.98799 -0.36866,-0.97959 -0.12482,-1.84121 0.98169,-2.69598 3.80671,-2.93982 8.2254,-9.43671 8.2254,-19.72819 0,-15.56547 -12.88845,-24.39073 -28.47709,-24.39073 H 495.8045 c -9.69425,0 -14.35678,5.6358 -14.35678,13.23763 v 54.66004 c 0,7.34587 4.29387,13.22499 12.1506,13.22499 z m 10.80076,-57.96169 c 0,-1.59157 0.9817,-2.82132 3.06938,-2.82132 h 1.71903 c 5.15653,0 6.75021,3.6761 6.75021,6.86555 0,3.06465 -1.59368,7.10888 -6.75021,7.10888 h -1.71903 c -2.08768,0 -3.06938,-1.22344 -3.06938,-2.82133 z"
     id="path14"
     inkscape:connector-curvature="0"
     style="fill:#d62300;stroke-width:5.26661062"
     inkscape:export-filename="C:\Users\suitedoalex\sites\burguer-king-logo-4.png"
     inkscape:export-xdpi="175.7128"
     inkscape:export-ydpi="175.7128" />
  <path
     d="m 291.82078,366.05158 c -13.7448,0 -21.23339,10.29148 -21.23339,23.16044 v 72.55388 c 0,12.86949 7.48859,23.16097 21.23339,23.16097 13.74428,0 21.23287,-10.29148 21.23287,-23.16097 v -72.55388 c 0,-12.86264 -7.48175,-23.16044 -21.23287,-23.16044 z"
     id="path16"
     inkscape:connector-curvature="0"
     style="fill:#d62300;stroke-width:5.26661062"
     inkscape:export-filename="C:\Users\suitedoalex\sites\burguer-king-logo-4.png"
     inkscape:export-xdpi="175.7128"
     inkscape:export-ydpi="175.7128" />
  <path
     d="m 510.04331,413.23461 h -6.01289 c -10.80076,0 -19.14518,5.02435 -19.14518,16.0521 0,10.04817 9.08174,14.8292 15.83248,14.8292 3.3127,0 5.64423,0.97959 5.64423,3.55075 0,3.18946 -3.92573,5.26766 -8.1011,5.26766 -13.86962,0 -23.32055,-9.43671 -23.32055,-26.96188 0,-19.48488 12.88845,-26.59375 22.82654,-26.59375 12.15113,0 14.11399,6.12928 22.58323,6.12928 9.81959,0 16.44499,-7.96364 16.44499,-16.05263 0,-6.00394 -2.70019,-10.65962 -6.99406,-13.84908 -7.48807,-5.5173 -18.77652,-9.56153 -34.73435,-9.56153 -28.59559,0 -56.4607,18.01181 -56.4607,59.92771 0,40.07469 27.85827,58.82277 55.35471,58.82277 28.83943,0 47.12827,-17.76849 47.12827,-43.75026 0.007,-16.41392 -10.30044,-27.81034 -31.04562,-27.81034 z"
     id="path18"
     inkscape:connector-curvature="0"
     style="fill:#d62300;stroke-width:5.26661062"
     inkscape:export-filename="C:\Users\suitedoalex\sites\burguer-king-logo-4.png"
     inkscape:export-xdpi="175.7128"
     inkscape:export-ydpi="175.7128" />
  <path
     d="m 463.65343,358.33125 c 6.87556,0 12.27594,-4.04423 12.27594,-11.39642 0,-7.23369 -5.40038,-11.27792 -12.27594,-11.27792 h -11.04461 c -2.08769,0 -3.06938,-1.22343 -3.06938,-2.82132 v -2.32784 c 0,-1.59157 0.98169,-2.82132 3.06938,-2.82132 h 8.46923 c 5.89439,0 10.55745,-3.55075 10.55745,-9.80485 0,-6.24726 -4.66306,-9.80485 -10.55745,-9.80485 h -8.46923 c -2.08769,0 -3.06938,-1.22344 -3.06938,-2.82132 v -1.95971 c 0,-1.59104 0.98169,-2.8208 3.06938,-2.8208 h 11.04461 c 6.87556,0 12.27594,-4.04423 12.27594,-11.39642 0,-7.23368 -5.40038,-11.27791 -12.27594,-11.27791 h -23.19574 c -9.69425,0 -14.3573,5.6358 -14.3573,13.23762 v 54.04227 c 0,7.59498 4.66305,13.23763 14.3573,13.23763 h 23.19574 z"
     id="path20"
     inkscape:connector-curvature="0"
     style="fill:#d62300;stroke-width:5.26661062"
     inkscape:export-filename="C:\Users\suitedoalex\sites\burguer-king-logo-4.png"
     inkscape:export-xdpi="175.7128"
     inkscape:export-ydpi="175.7128" />
  <path
     d="m 252.79204,358.94271 c 19.88303,0 30.43995,-11.8899 30.43995,-26.83707 v -41.2976 c 0,-7.35219 -4.29386,-13.23763 -12.15112,-13.23763 -7.85673,0 -12.1506,5.88544 -12.1506,13.23763 v 39.94935 c 0,2.93982 -1.71902,6.37259 -6.13823,6.37259 -4.41921,0 -5.89439,-3.43277 -5.89439,-6.37259 v -39.94935 c 0,-7.35219 -4.41921,-13.23763 -12.27594,-13.23763 -7.85726,0 -12.15113,5.88544 -12.15113,13.23763 v 41.2976 c 0.007,14.95401 10.43895,26.83707 30.32146,26.83707 z"
     id="path22"
     inkscape:connector-curvature="0"
     style="fill:#d62300;stroke-width:5.26661062"
     inkscape:export-filename="C:\Users\suitedoalex\sites\burguer-king-logo-4.png"
     inkscape:export-xdpi="175.7128"
     inkscape:export-ydpi="175.7128" />
  <path
     d="m 338.95589,358.94271 c 6.38155,0 11.90728,-5.02435 11.90728,-11.27792 0,-4.16958 -1.71902,-7.23369 -3.9252,-10.04817 -3.55655,-4.65621 -6.75074,-8.70044 -8.34442,-12.98799 -0.36866,-0.97959 -0.12535,-1.84121 0.98117,-2.69598 3.8067,-2.93982 8.22592,-9.43671 8.22592,-19.72819 0,-15.566 -12.88845,-24.39073 -28.47709,-24.39073 h -13.87647 c -9.69477,0 -14.3573,5.6358 -14.3573,13.23763 v 54.66004 c 0,7.35219 4.29386,13.23763 12.15059,13.23763 7.85726,0 12.15113,-5.88544 12.15113,-13.23763 v -12.98746 c 0,-1.59157 0.73785,-2.32784 1.96286,-2.32784 1.47518,0 1.96234,0.85477 2.20619,2.32784 1.10651,6.24725 4.05002,14.70385 7.36272,18.99824 4.17537,5.50414 8.10057,7.22053 12.03262,7.22053 z m -20.1332,-46.8149 h -1.71902 c -2.08768,0 -3.06885,-1.22344 -3.06885,-2.82133 v -8.32546 c 0,-1.59157 0.98117,-2.82079 3.06885,-2.82079 h 1.71902 c 5.15707,0 6.75074,3.67557 6.75074,6.86502 0,3.0578 -1.59367,7.10256 -6.75074,7.10256 z"
     id="path24"
     inkscape:connector-curvature="0"
     style="fill:#d62300;stroke-width:5.26661062"
     inkscape:export-filename="C:\Users\suitedoalex\sites\burguer-king-logo-4.png"
     inkscape:export-xdpi="175.7128"
     inkscape:export-ydpi="175.7128" />
  <path
     d="m 409.52373,366.05158 c -12.6446,0 -19.51384,9.43618 -19.51384,21.32608 v 26.46841 c 0,2.20302 -0.73786,3.18945 -2.08769,3.18945 -0.98117,0 -1.71902,-0.61145 -2.57537,-2.32784 l -17.0575,-33.09064 c -6.50637,-12.62617 -13.25711,-15.56546 -20.98902,-15.56546 -12.88845,0 -20.00785,9.68003 -20.00785,21.81272 v 75.74281 c 0,11.8899 6.87556,21.32661 19.51384,21.32661 12.64513,0 19.51437,-9.43671 19.51437,-21.32661 V 437.1387 c 0,-2.20302 0.73733,-3.18946 2.08769,-3.18946 0.98117,0 1.71849,0.61146 2.57484,2.32785 l 17.0575,33.09064 c 6.5069,12.62617 13.50096,15.56599 20.98902,15.56599 12.88898,0 20.00786,-9.68003 20.00786,-21.81325 v -75.74281 c 0,-11.8899 -6.86872,-21.32608 -19.51385,-21.32608 z"
     id="path26"
     inkscape:connector-curvature="0"
     style="fill:#d62300;stroke-width:5.26661062"
     inkscape:export-filename="C:\Users\suitedoalex\sites\burguer-king-logo-4.png"
     inkscape:export-xdpi="175.7128"
     inkscape:export-ydpi="175.7128" />
  <path
     d="m 523.81444,555.50103 c 0,-3.29426 2.55536,-6.04975 6.05871,-6.04975 3.50388,0 6.05924,2.75549 6.05924,6.04975 0,3.53811 -2.55536,6.08978 -6.05924,6.08978 -3.50335,0.005 -6.05871,-2.59117 -6.05871,-6.08978 z m 10.80077,0 c 0,-3.04463 -2.39052,-4.81315 -4.74206,-4.81315 -2.35101,0 -4.74153,1.76852 -4.74153,4.81315 0,3.16997 2.39052,4.85318 4.74153,4.85318 2.35154,0 4.74206,-1.68321 4.74206,-4.85318 z m -6.84291,2.59749 v -5.14231 c 0,-0.32864 0.29019,-0.65728 0.61935,-0.65728 h 1.73219 c 1.35668,0 2.30467,0.82159 2.30467,1.93338 0,0.94693 -0.53351,1.76852 -1.77116,1.97234 l 1.35668,1.52574 c 0.12482,0.12534 0.20382,0.28966 0.20382,0.40763 0,0.36867 -0.25017,0.6183 -0.61883,0.6183 -0.25016,0 -0.41501,-0.12481 -0.53351,-0.28913 L 529.25433,556.33 h -0.20435 v 1.76852 c 0,0.32917 -0.28966,0.6183 -0.65833,0.6183 -0.32916,-0.005 -0.61935,-0.28913 -0.61935,-0.6183 z m 2.1867,-2.92612 c 0.74417,0 1.15233,-0.36814 1.15233,-0.86162 0,-0.53246 -0.36866,-0.82159 -1.02699,-0.82159 h -1.02751 v 1.69005 h 0.90217 z"
     id="path28"
     inkscape:connector-curvature="0"
     style="fill:#d62300;stroke-width:5.26661062"
     inkscape:export-filename="C:\Users\suitedoalex\sites\burguer-king-logo-4.png"
     inkscape:export-xdpi="175.7128"
     inkscape:export-ydpi="175.7128" />
  <path
     d="m 1096.6777,594.8312 c -98.77422,0 -153.41056,-8.14113 -188.97809,-28.27906 -26.13977,-14.78233 -42.4236,-37.06272 -42.4236,-58.05754 V 229.77452 c 0,-31.27787 22.92592,-67.05533 59.56431,-93.19199 30.42521,-21.63771 85.06208,-47.345931 171.83738,-47.345931 151.0543,0 231.4023,81.623511 231.4023,140.537921 v 1.28558 277.22015 c 0,21.20917 -16.2839,43.48956 -42.638,58.27189 -35.3532,20.13793 -89.9895,28.27906 -188.7643,28.27906 z"
     id="path4-6"
     inkscape:connector-curvature="0"
     style="fill:#f5ebdc;stroke-width:5.26661062"
     inkscape:export-filename="C:\Users\suitedoalex\sites\burguer-king-logo-5.png"
     inkscape:export-xdpi="82.972496"
     inkscape:export-ydpi="82.972496" />
  <path
     d="m 1259.4444,534.80395 c -31.9088,18.01181 -86.651,23.16098 -162.3754,23.16098 -75.7244,0 -130.46604,-5.14917 -162.37485,-23.16098 -19.15203,-10.78496 -28.84623,-25.48881 -28.84623,-36.03046 0,-6.00393 3.19415,-9.43618 10.30671,-9.43618 h 361.82187 c 7.1195,0 10.3073,3.43225 10.3073,9.43618 0.01,10.54165 -9.6879,25.2455 -28.8394,36.03046 z m 18.5321,-279.41738 H 916.15463 c -7.11256,0 -10.30671,-3.67556 -10.30671,-10.29148 0,-39.21939 59.03602,-108.459 191.22108,-108.459 130.9606,0 191.2212,69.23961 191.2212,108.459 0,6.61592 -3.1942,10.29148 -10.3137,10.29148 z"
     id="path6-6"
     inkscape:connector-curvature="0"
     style="fill:#ff8732;stroke-width:5.26661062"
     inkscape:export-filename="C:\Users\suitedoalex\sites\burguer-king-logo-5.png"
     inkscape:export-xdpi="82.972496"
     inkscape:export-ydpi="82.972496" />
  <path
     d="m 982.92208,417.15788 c -1.10652,-1.71638 -1.22501,-2.82132 -1.22501,-3.30795 0,-1.34773 0.73732,-2.32785 2.20618,-3.67557 3.43752,-3.18946 11.90728,-11.1531 16.56985,-18.38047 3.5565,-5.5173 5.0317,-10.54112 5.0317,-14.70385 0,-10.66015 -9.69427,-18.99824 -20.25172,-18.99824 -6.75021,0 -13.13229,3.80091 -17.42616,10.78443 -5.76904,9.3119 -12.6446,20.09686 -17.0575,24.39073 -1.10651,1.10493 -1.71849,1.34825 -2.57484,1.34825 -1.47518,0 -2.08769,-0.98011 -2.08769,-2.57116 v -12.25803 c 0,-12.00787 -7.1194,-21.69422 -20.00785,-21.69422 -13.00747,0 -20.00806,9.68003 -20.00806,21.69422 v 75.49317 c 0,12.00787 6.99427,21.69475 20.00806,21.69475 12.88845,0 20.00785,-9.68003 20.00785,-21.69475 v -17.39983 c 0,-1.47307 0.61251,-2.57168 2.08769,-2.57168 1.96234,0 2.45635,1.9597 2.94403,2.93982 2.82501,6.74021 11.04408,21.07645 18.6575,29.53304 5.15706,5.6358 11.53861,9.1934 18.28935,9.1934 11.41328,0 20.98904,-9.92967 20.98904,-20.58981 0,-6.61539 -2.8256,-11.52124 -8.2259,-17.40036 -6.87559,-7.49017 -14.97617,-17.29502 -17.92652,-21.82589 z"
     id="path8-7"
     inkscape:connector-curvature="0"
     style="fill:#d62300;stroke-width:5.26661062"
     inkscape:export-filename="C:\Users\suitedoalex\sites\burguer-king-logo-5.png"
     inkscape:export-xdpi="82.972496"
     inkscape:export-ydpi="82.972496" />
  <path
     d="m 1135.9782,351.10142 c 19.2705,0 31.4211,-12.25803 31.4211,-30.14502 0,-11.39642 -6.8755,-19.24156 -20.6203,-19.24156 h -3.9252 c -7.2443,0 -12.8885,3.43277 -12.8885,11.1531 0,6.86555 6.0129,10.17298 10.5569,10.17298 2.3316,0 3.8067,0.7368 3.8067,2.45319 0,2.20302 -2.5748,3.67609 -5.5252,3.67609 -9.2071,0 -15.4638,-6.49741 -15.4638,-18.6301 0,-13.48095 8.5946,-18.37995 15.22,-18.37995 8.1006,0 9.4509,4.16905 15.0946,4.16905 6.5069,0 10.9261,-5.39248 10.9261,-11.02828 0,-4.16905 -1.8438,-7.35166 -4.6625,-9.56153 -5.1571,-3.80091 -12.395,-6.61539 -23.1957,-6.61539 -19.0267,0 -37.5594,12.50083 -37.5594,41.42242 -0.01,27.68551 18.5264,40.555 36.8152,40.555 z"
     id="path10-4"
     inkscape:connector-curvature="0"
     style="fill:#d62300;stroke-width:5.26661062"
     inkscape:export-filename="C:\Users\suitedoalex\sites\burguer-king-logo-5.png"
     inkscape:export-xdpi="82.972496"
     inkscape:export-ydpi="82.972496" />
  <path
     d="m 920.20518,350.36515 h 17.30766 c 16.32649,0 26.26458,-10.90978 26.26458,-24.50922 0,-10.90979 -6.50689,-15.93361 -7.97575,-17.15704 -0.61251,-0.49295 -1.22501,-0.97959 -1.22501,-1.47307 0,-0.61145 0.36918,-0.85477 0.98169,-1.59157 2.331,-2.69598 4.66253,-6.98353 4.66253,-13.23763 0,-14.70385 -9.94441,-22.54899 -25.40823,-22.54899 h -14.60747 c -9.69425,0 -14.35726,5.64212 -14.35726,13.23763 v 54.04227 c 0,7.60182 4.66301,13.23762 14.35726,13.23762 z m 7.24422,-59.43475 c 0,-1.59157 0.98169,-2.82132 3.06938,-2.82132 h 1.59368 c 5.27503,0 6.87556,3.67609 6.87556,6.86555 0,2.9393 -1.59368,7.10887 -6.87556,7.10887 h -1.59368 c -2.08769,0 -3.06938,-1.22343 -3.06938,-2.82132 z m 0,28.67827 c 0,-1.59157 0.98169,-2.82132 3.06938,-2.82132 h 2.20618 c 5.89439,0 7.60657,3.91941 7.60657,7.47701 0,3.18946 -1.71902,7.72032 -7.60657,7.72032 h -2.20618 c -2.08769,0 -3.06938,-1.22291 -3.06938,-2.8208 z"
     id="path12-0"
     inkscape:connector-curvature="0"
     style="fill:#d62300;stroke-width:5.26661062"
     inkscape:export-filename="C:\Users\suitedoalex\sites\burguer-king-logo-5.png"
     inkscape:export-xdpi="82.972496"
     inkscape:export-ydpi="82.972496" />
  <path
     d="m 1240.6674,350.97661 c 7.8572,0 12.1511,-5.88597 12.1511,-13.23763 v -12.98799 c 0,-1.59157 0.7378,-2.32784 1.9623,-2.32784 1.4757,0 1.9629,0.85477 2.2067,2.32784 1.106,6.24726 4.0501,14.70385 7.3627,18.99825 4.1754,5.5173 8.1006,7.23369 12.0258,7.23369 6.3821,0 11.9073,-5.02435 11.9073,-11.27792 0,-4.16905 -1.719,-7.23369 -3.9252,-10.04817 -4.1754,-5.26766 -6.7502,-8.70044 -8.3444,-12.98799 -0.3687,-0.97959 -0.1248,-1.84121 0.9817,-2.69598 3.8067,-2.93982 8.2254,-9.43671 8.2254,-19.72819 0,-15.56547 -12.8885,-24.39073 -28.4771,-24.39073 h -13.8702 c -9.6942,0 -14.3567,5.6358 -14.3567,13.23763 v 54.66004 c 0,7.34587 4.2938,13.22499 12.1506,13.22499 z m 10.8007,-57.96169 c 0,-1.59157 0.9817,-2.82132 3.0694,-2.82132 h 1.719 c 5.1566,0 6.7502,3.6761 6.7502,6.86555 0,3.06465 -1.5936,7.10888 -6.7502,7.10888 h -1.719 c -2.0877,0 -3.0694,-1.22344 -3.0694,-2.82133 z"
     id="path14-5"
     inkscape:connector-curvature="0"
     style="fill:#d62300;stroke-width:5.26661062"
     inkscape:export-filename="C:\Users\suitedoalex\sites\burguer-king-logo-5.png"
     inkscape:export-xdpi="82.972496"
     inkscape:export-ydpi="82.972496" />
  <path
     d="m 1038.8898,358.08548 c -13.7448,0 -21.2334,10.29148 -21.2334,23.16044 v 72.55388 c 0,12.86949 7.4886,23.16097 21.2334,23.16097 13.7443,0 21.2329,-10.29148 21.2329,-23.16097 v -72.55388 c 0,-12.86264 -7.4818,-23.16044 -21.2329,-23.16044 z"
     id="path16-0"
     inkscape:connector-curvature="0"
     style="fill:#d62300;stroke-width:5.26661062"
     inkscape:export-filename="C:\Users\suitedoalex\sites\burguer-king-logo-5.png"
     inkscape:export-xdpi="82.972496"
     inkscape:export-ydpi="82.972496" />
  <path
     d="m 1257.1123,405.26851 h -6.0128 c -10.8008,0 -19.1452,5.02435 -19.1452,16.0521 0,10.04817 9.0817,14.8292 15.8325,14.8292 3.3127,0 5.6442,0.97959 5.6442,3.55075 0,3.18946 -3.9257,5.26766 -8.1011,5.26766 -13.8696,0 -23.3206,-9.43671 -23.3206,-26.96188 0,-19.48488 12.8885,-26.59375 22.8266,-26.59375 12.1511,0 14.114,6.12928 22.5832,6.12928 9.8196,0 16.445,-7.96364 16.445,-16.05263 0,-6.00394 -2.7002,-10.65962 -6.9941,-13.84908 -7.488,-5.5173 -18.7765,-9.56153 -34.7343,-9.56153 -28.5956,0 -56.4607,18.01181 -56.4607,59.92771 0,40.07469 27.8583,58.82277 55.3547,58.82277 28.8394,0 47.1283,-17.76849 47.1283,-43.75026 0.01,-16.41392 -10.3005,-27.81034 -31.0457,-27.81034 z"
     id="path18-4"
     inkscape:connector-curvature="0"
     style="fill:#d62300;stroke-width:5.26661062"
     inkscape:export-filename="C:\Users\suitedoalex\sites\burguer-king-logo-5.png"
     inkscape:export-xdpi="82.972496"
     inkscape:export-ydpi="82.972496" />
  <path
     d="m 1210.7225,350.36515 c 6.8755,0 12.2759,-4.04423 12.2759,-11.39642 0,-7.23369 -5.4004,-11.27792 -12.2759,-11.27792 h -11.0446 c -2.0877,0 -3.0694,-1.22343 -3.0694,-2.82132 v -2.32784 c 0,-1.59157 0.9817,-2.82132 3.0694,-2.82132 h 8.4692 c 5.8944,0 10.5574,-3.55075 10.5574,-9.80485 0,-6.24726 -4.663,-9.80485 -10.5574,-9.80485 h -8.4692 c -2.0877,0 -3.0694,-1.22344 -3.0694,-2.82132 v -1.95971 c 0,-1.59104 0.9817,-2.8208 3.0694,-2.8208 h 11.0446 c 6.8755,0 12.2759,-4.04423 12.2759,-11.39642 0,-7.23368 -5.4004,-11.27791 -12.2759,-11.27791 h -23.1958 c -9.6942,0 -14.3573,5.6358 -14.3573,13.23762 v 54.04227 c 0,7.59498 4.6631,13.23763 14.3573,13.23763 h 23.1958 z"
     id="path20-9"
     inkscape:connector-curvature="0"
     style="fill:#d62300;stroke-width:5.26661062"
     inkscape:export-filename="C:\Users\suitedoalex\sites\burguer-king-logo-5.png"
     inkscape:export-xdpi="82.972496"
     inkscape:export-ydpi="82.972496" />
  <path
     d="m 999.86108,350.97661 c 19.88302,0 30.43992,-11.8899 30.43992,-26.83707 v -41.2976 c 0,-7.35219 -4.2938,-13.23763 -12.1511,-13.23763 -7.8567,0 -12.1506,5.88544 -12.1506,13.23763 v 39.94935 c 0,2.93982 -1.719,6.37259 -6.13822,6.37259 -4.41921,0 -5.89439,-3.43277 -5.89439,-6.37259 v -39.94935 c 0,-7.35219 -4.41921,-13.23763 -12.27594,-13.23763 -7.85726,0 -12.15113,5.88544 -12.15113,13.23763 v 41.2976 c 0.007,14.95401 10.43895,26.83707 30.32146,26.83707 z"
     id="path22-9"
     inkscape:connector-curvature="0"
     style="fill:#d62300;stroke-width:5.26661062"
     inkscape:export-filename="C:\Users\suitedoalex\sites\burguer-king-logo-5.png"
     inkscape:export-xdpi="82.972496"
     inkscape:export-ydpi="82.972496" />
  <path
     d="m 1086.0249,350.97661 c 6.3816,0 11.9073,-5.02435 11.9073,-11.27792 0,-4.16958 -1.719,-7.23369 -3.9252,-10.04817 -3.5565,-4.65621 -6.7507,-8.70044 -8.3444,-12.98799 -0.3687,-0.97959 -0.1254,-1.84121 0.9812,-2.69598 3.8067,-2.93982 8.2259,-9.43671 8.2259,-19.72819 0,-15.566 -12.8885,-24.39073 -28.4771,-24.39073 h -13.8765 c -9.6948,0 -14.3573,5.6358 -14.3573,13.23763 v 54.66004 c 0,7.35219 4.2939,13.23763 12.1506,13.23763 7.8573,0 12.1511,-5.88544 12.1511,-13.23763 v -12.98746 c 0,-1.59157 0.7379,-2.32784 1.9629,-2.32784 1.4752,0 1.9623,0.85477 2.2062,2.32784 1.1065,6.24725 4.05,14.70385 7.3627,18.99824 4.1754,5.50414 8.1006,7.22053 12.0326,7.22053 z m -20.1332,-46.8149 h -1.719 c -2.0877,0 -3.0688,-1.22344 -3.0688,-2.82133 v -8.32546 c 0,-1.59157 0.9811,-2.82079 3.0688,-2.82079 h 1.719 c 5.1571,0 6.7508,3.67557 6.7508,6.86502 0,3.0578 -1.5937,7.10256 -6.7508,7.10256 z"
     id="path24-2"
     inkscape:connector-curvature="0"
     style="fill:#d62300;stroke-width:5.26661062"
     inkscape:export-filename="C:\Users\suitedoalex\sites\burguer-king-logo-5.png"
     inkscape:export-xdpi="82.972496"
     inkscape:export-ydpi="82.972496" />
  <path
     d="m 1156.5928,358.08548 c -12.6446,0 -19.5139,9.43618 -19.5139,21.32608 v 26.46841 c 0,2.20302 -0.7378,3.18945 -2.0877,3.18945 -0.9811,0 -1.719,-0.61145 -2.5753,-2.32784 l -17.0575,-33.09064 c -6.5064,-12.62617 -13.2571,-15.56546 -20.9891,-15.56546 -12.8884,0 -20.0078,9.68003 -20.0078,21.81272 v 75.74281 c 0,11.8899 6.8756,21.32661 19.5138,21.32661 12.6452,0 19.5144,-9.43671 19.5144,-21.32661 V 429.1726 c 0,-2.20302 0.7373,-3.18946 2.0877,-3.18946 0.9812,0 1.7185,0.61146 2.5748,2.32785 l 17.0575,33.09064 c 6.5069,12.62617 13.501,15.56599 20.9891,15.56599 12.8889,0 20.0078,-9.68003 20.0078,-21.81325 v -75.74281 c 0,-11.8899 -6.8687,-21.32608 -19.5138,-21.32608 z"
     id="path26-2"
     inkscape:connector-curvature="0"
     style="fill:#d62300;stroke-width:5.26661062"
     inkscape:export-filename="C:\Users\suitedoalex\sites\burguer-king-logo-5.png"
     inkscape:export-xdpi="82.972496"
     inkscape:export-ydpi="82.972496" />
  <path
     d="m 1270.8835,547.53493 c 0,-3.29426 2.5553,-6.04975 6.0587,-6.04975 3.5039,0 6.0592,2.75549 6.0592,6.04975 0,3.53811 -2.5553,6.08978 -6.0592,6.08978 -3.5034,0.005 -6.0587,-2.59117 -6.0587,-6.08978 z m 10.8007,0 c 0,-3.04463 -2.3905,-4.81315 -4.742,-4.81315 -2.351,0 -4.7415,1.76852 -4.7415,4.81315 0,3.16997 2.3905,4.85318 4.7415,4.85318 2.3515,0 4.742,-1.68321 4.742,-4.85318 z m -6.8429,2.59749 v -5.14231 c 0,-0.32864 0.2902,-0.65728 0.6194,-0.65728 h 1.7322 c 1.3567,0 2.3046,0.82159 2.3046,1.93338 0,0.94693 -0.5335,1.76852 -1.7711,1.97234 l 1.3567,1.52574 c 0.1248,0.12534 0.2038,0.28966 0.2038,0.40763 0,0.36867 -0.2502,0.6183 -0.6188,0.6183 -0.2502,0 -0.4151,-0.12481 -0.5336,-0.28913 l -1.8111,-2.13719 h -0.2044 v 1.76852 c 0,0.32917 -0.2896,0.6183 -0.6583,0.6183 -0.3292,-0.005 -0.6194,-0.28913 -0.6194,-0.6183 z m 2.1867,-2.92612 c 0.7442,0 1.1524,-0.36814 1.1524,-0.86162 0,-0.53246 -0.3687,-0.82159 -1.027,-0.82159 h -1.0275 v 1.69005 h 0.9021 z"
     id="path28-0"
     inkscape:connector-curvature="0"
     style="fill:#d62300;stroke-width:5.26661062"
     inkscape:export-filename="C:\Users\suitedoalex\sites\burguer-king-logo-5.png"
     inkscape:export-xdpi="82.972496"
     inkscape:export-ydpi="82.972496" />
</svg>
