<?xml version="1.0" encoding="UTF-8"?>
<svg id="Camada_2" data-name="Camada 2" xmlns="http://www.w3.org/2000/svg" viewBox="0 0 283.46 68.03">
  <defs>
    <style>
      .cls-1 {
        fill: #e62a35;
      }

      .cls-1, .cls-2 {
        stroke-width: 0px;
      }

      .cls-2 {
        fill: #69686c;
      }
    </style>
  </defs>
  <g id="LOGO_CK" data-name="LOGO CK">
    <polygon class="cls-1" points="58.6 0 56.1 0 46.04 0 46.04 17.88 58.6 0"/>
    <path class="cls-2" d="m40.03,51.19c-2.99,3.11-7.18,5.05-11.83,5.05-9.06,0-16.41-7.35-16.41-16.41s7.35-16.41,16.41-16.41c4.23,0,8.09,1.6,11,4.23l6.79-9.7c-4.85-3.95-11.04-6.32-17.79-6.32C12.62,11.64,0,24.27,0,39.84s12.62,28.19,28.19,28.19c7.16,0,13.69-2.68,18.67-7.08l-6.83-9.76Z"/>
    <polygon class="cls-2" points="87.01 0 73.35 0 49.59 33.94 73.35 67.87 87.01 67.87 63.24 33.94 87.01 0"/>
    <g>
      <path class="cls-2" d="m114.2,16.53c-.69-.48-1.5-.72-2.45-.72-.81,0-1.49.15-2.07.45-.57.3-1.05.71-1.42,1.22-.37.51-.64,1.09-.82,1.75-.18.65-.26,1.33-.26,2.04,0,.77.09,1.49.26,2.18.18.69.45,1.28.82,1.79.37.51.85.92,1.43,1.22.58.3,1.27.45,2.08.45.59,0,1.12-.1,1.58-.29.46-.19.86-.47,1.19-.81.33-.35.59-.76.78-1.24.19-.48.3-.99.34-1.55h1.79c-.18,1.7-.76,3.02-1.76,3.97-.99.94-2.35,1.42-4.08,1.42-1.04,0-1.96-.18-2.74-.54-.78-.36-1.43-.85-1.94-1.48-.52-.63-.9-1.37-1.16-2.23-.26-.86-.39-1.78-.39-2.76s.14-1.9.42-2.77c.28-.86.68-1.61,1.22-2.26.53-.64,1.2-1.15,2-1.52.8-.37,1.71-.56,2.75-.56.71,0,1.37.1,2,.28.63.19,1.19.47,1.68.83.49.37.9.82,1.23,1.37.33.55.54,1.18.64,1.9h-1.79c-.2-.96-.65-1.67-1.33-2.15"/>
      <path class="cls-2" d="m121.03,21.23c.2-.62.5-1.16.91-1.62.4-.46.9-.82,1.49-1.09.59-.26,1.27-.4,2.04-.4s1.46.13,2.05.4c.58.26,1.08.63,1.48,1.09.4.46.71,1,.91,1.62.2.62.3,1.29.3,2.01s-.1,1.39-.3,2c-.2.62-.5,1.15-.91,1.62-.4.46-.9.82-1.48,1.08-.59.26-1.27.39-2.05.39s-1.45-.13-2.04-.39c-.59-.26-1.09-.62-1.49-1.08-.4-.46-.71-1-.91-1.62-.2-.62-.3-1.28-.3-2s.1-1.39.3-2.01m1.63,3.59c.16.46.37.84.65,1.15.28.31.6.54.97.71.37.16.76.25,1.18.25s.81-.08,1.18-.25c.37-.16.7-.4.97-.71.28-.31.49-.69.65-1.15.16-.46.24-.98.24-1.58s-.08-1.12-.24-1.58c-.16-.46-.38-.85-.65-1.16-.28-.32-.6-.55-.97-.72-.37-.16-.76-.24-1.18-.24s-.81.08-1.18.24c-.37.16-.7.4-.97.72-.28.31-.49.7-.65,1.16-.16.46-.24.99-.24,1.58s.08,1.12.24,1.58"/>
      <path class="cls-2" d="m135.45,18.35v1.55h.04c.67-1.18,1.72-1.77,3.17-1.77.64,0,1.18.09,1.6.26.43.18.77.42,1.04.74.26.32.45.69.56,1.12.11.43.16.92.16,1.44v6.42h-1.6v-6.61c0-.6-.18-1.08-.53-1.43s-.84-.53-1.46-.53c-.49,0-.91.08-1.27.23-.36.15-.66.37-.9.64-.24.28-.42.6-.54.97-.12.37-.18.78-.18,1.22v5.51h-1.6v-9.76h1.51Z"/>
      <path class="cls-2" d="m147.52,25.93c.15.25.35.44.59.59.25.15.52.25.83.31.31.06.63.1.95.1.25,0,.52-.02.79-.06.28-.04.53-.11.76-.21.23-.1.43-.25.58-.44.15-.19.23-.44.23-.75,0-.41-.16-.73-.47-.94-.32-.21-.71-.39-1.18-.52s-.99-.25-1.54-.36c-.55-.11-1.07-.26-1.54-.45-.47-.2-.86-.47-1.18-.82-.31-.35-.47-.84-.47-1.47,0-.49.11-.91.33-1.26.22-.35.5-.64.85-.86.35-.22.74-.38,1.17-.49.43-.11.87-.16,1.29-.16.55,0,1.06.05,1.53.14.46.09.88.26,1.24.49.36.23.64.55.86.94.21.4.34.89.38,1.48h-1.61c-.02-.31-.11-.58-.24-.78-.14-.21-.32-.37-.53-.5-.21-.12-.45-.22-.71-.27-.26-.06-.52-.09-.78-.09-.24,0-.48.02-.73.06-.25.04-.47.1-.67.2-.2.1-.37.22-.49.38-.13.16-.19.36-.19.61,0,.28.1.51.29.69.19.18.44.33.75.45.3.12.64.22,1.02.3.38.08.75.17,1.13.25.4.09.8.2,1.18.32.38.13.72.29,1.02.5.3.21.54.47.72.78.18.32.27.71.27,1.17,0,.59-.12,1.08-.37,1.47-.25.39-.57.71-.96.94-.4.24-.84.41-1.34.5-.5.09-.99.14-1.48.14-.54,0-1.06-.06-1.55-.17-.49-.11-.93-.3-1.3-.56-.38-.26-.68-.6-.91-1.02-.23-.42-.35-.93-.38-1.54h1.61c.01.35.09.65.25.9"/>
      <path class="cls-2" d="m161.73,18.35v1.42h-1.94v6.06c0,.19.01.34.05.45.03.11.09.2.18.26.09.06.21.1.37.12s.36.03.61.03h.74v1.42h-1.23c-.42,0-.77-.03-1.07-.09-.3-.06-.54-.16-.72-.31-.18-.15-.32-.37-.41-.64-.09-.28-.13-.64-.13-1.1v-6.21h-1.66v-1.42h1.66v-2.93h1.61v2.93h1.94Z"/>
      <path class="cls-2" d="m166.72,18.35v2.06h.04c.39-.79.87-1.38,1.43-1.76.57-.38,1.28-.55,2.15-.53v1.7c-.64,0-1.19.09-1.64.26-.45.18-.82.43-1.1.77-.28.34-.48.75-.6,1.24-.13.49-.19,1.04-.19,1.67v4.34h-1.6v-9.76h1.51Z"/>
      <path class="cls-2" d="m180.04,28.11v-1.55h-.04c-.34.6-.77,1.05-1.3,1.33-.53.28-1.15.43-1.87.43-.64,0-1.18-.09-1.6-.26-.43-.17-.77-.41-1.04-.73-.26-.31-.45-.69-.56-1.12-.11-.43-.16-.92-.16-1.44v-6.42h1.6v6.61c0,.6.18,1.08.53,1.43.35.35.84.53,1.46.53.49,0,.92-.08,1.27-.23.36-.15.66-.37.9-.64.24-.28.42-.6.54-.97.12-.37.18-.78.18-1.22v-5.51h1.6v9.76h-1.51Z"/>
      <path class="cls-2" d="m191.67,20.05c-.4-.34-.94-.51-1.62-.51-.58,0-1.06.11-1.45.32-.39.21-.7.5-.94.85-.23.35-.4.76-.5,1.22-.1.46-.15.93-.15,1.42,0,.45.05.9.16,1.32.11.43.27.81.5,1.14.23.33.52.6.89.8.36.2.8.3,1.3.3.79,0,1.41-.21,1.86-.62.45-.41.72-1,.82-1.76h1.64c-.18,1.15-.6,2.05-1.29,2.7-.68.66-1.59,1.01-2.74,1.06l-.62.79.04.04c.13-.09.33-.13.62-.13.4,0,.77.11,1.1.34.33.23.49.57.49,1.04,0,.31-.07.58-.22.79-.15.21-.33.39-.56.52-.23.13-.48.23-.76.28-.28.06-.55.09-.81.09-.3,0-.59-.04-.88-.1-.28-.07-.57-.15-.86-.26l.34-.83c.15.06.33.12.54.17.21.05.41.07.61.07.12,0,.26,0,.4-.03.14-.02.27-.05.38-.1.11-.05.21-.11.28-.18.08-.07.11-.16.11-.27,0-.18-.08-.32-.26-.43-.17-.11-.38-.16-.63-.16-.15,0-.28.01-.4.04-.11.02-.24.06-.38.11l-.32-.53,1-1.28c-.67-.05-1.26-.21-1.77-.47-.51-.26-.93-.61-1.27-1.04-.34-.43-.6-.93-.77-1.51-.18-.58-.26-1.21-.26-1.91,0-.73.09-1.41.28-2.05.19-.64.48-1.19.86-1.66s.86-.84,1.45-1.11c.58-.27,1.25-.41,2.02-.41.55,0,1.07.07,1.56.2.48.13.91.34,1.28.61.37.28.68.63.92,1.05.24.42.39.92.45,1.5h-1.66c-.13-.62-.39-1.1-.79-1.44"/>
      <path class="cls-2" d="m197.61,21.23c.2-.62.5-1.16.91-1.62.4-.46.9-.82,1.49-1.09.59-.26,1.27-.4,2.04-.4s1.46.13,2.05.4c.58.26,1.08.63,1.48,1.09.4.46.7,1,.91,1.62.2.62.3,1.29.3,2.01s-.1,1.39-.3,2c-.2.62-.5,1.15-.91,1.62-.4.46-.9.82-1.48,1.08-.59.26-1.27.39-2.05.39s-1.45-.13-2.04-.39c-.59-.26-1.09-.62-1.49-1.08-.4-.46-.7-1-.91-1.62-.2-.62-.3-1.28-.3-2s.1-1.39.3-2.01m5.2-6.16c-.23-.1-.46-.21-.69-.34-.23-.12-.46-.24-.7-.34-.24-.1-.48-.15-.74-.15-.53,0-.95.18-1.27.53-.32.35-.54.91-.67,1.68h.89c.11-.64.46-.96,1.04-.96.23,0,.45.05.67.15s.44.21.67.34c.23.13.45.24.68.34.23.1.46.15.72.15.49,0,.91-.16,1.26-.48.35-.32.58-.92.71-1.8h-.92c-.04.33-.14.58-.29.76-.16.18-.38.27-.65.27-.23,0-.46-.05-.69-.15m-3.57,9.75c.16.46.37.84.65,1.15.28.31.6.54.97.71.37.16.76.25,1.18.25s.81-.08,1.18-.25c.37-.16.7-.4.97-.71.28-.31.49-.69.65-1.15.16-.46.24-.98.24-1.58s-.08-1.12-.24-1.58c-.16-.46-.38-.85-.65-1.16-.28-.32-.6-.55-.97-.72-.37-.16-.76-.24-1.18-.24s-.81.08-1.18.24c-.37.16-.7.4-.97.72-.28.31-.49.7-.65,1.16-.16.46-.24.99-.24,1.58s.08,1.12.24,1.58"/>
      <path class="cls-2" d="m217.44,27.49c-.73.55-1.65.83-2.76.83-.78,0-1.46-.13-2.03-.38-.57-.25-1.05-.6-1.44-1.06-.39-.45-.68-.99-.88-1.62-.2-.63-.31-1.31-.33-2.06,0-.74.11-1.42.34-2.04s.54-1.15.95-1.6c.41-.45.89-.81,1.45-1.06.56-.25,1.17-.38,1.84-.38.87,0,1.59.18,2.16.54.57.36,1.03.82,1.38,1.37.35.55.58,1.16.72,1.81.13.65.18,1.28.16,1.87h-7.31c-.01.43.04.83.15,1.22.11.38.3.72.55,1.02.25.3.57.53.96.71.39.18.85.26,1.38.26.68,0,1.24-.16,1.67-.47.43-.31.72-.79.86-1.43h1.59c-.21,1.1-.69,1.92-1.42,2.47m-.39-6.27c-.15-.34-.34-.63-.59-.88s-.54-.44-.87-.59c-.33-.14-.7-.22-1.11-.22s-.79.07-1.12.22c-.33.14-.62.34-.86.59-.24.25-.43.54-.57.88-.14.33-.22.69-.25,1.07h5.61c-.03-.38-.11-.74-.25-1.08"/>
      <path class="cls-2" d="m223.87,25.93c.15.25.35.44.59.59.25.15.52.25.83.31.31.06.63.1.95.1.25,0,.52-.02.79-.06.28-.04.53-.11.76-.21.23-.1.43-.25.58-.44.15-.19.23-.44.23-.75,0-.41-.16-.73-.47-.94-.32-.21-.71-.39-1.18-.52-.47-.13-.98-.25-1.54-.36-.55-.11-1.07-.26-1.54-.45-.47-.2-.86-.47-1.18-.82-.31-.35-.47-.84-.47-1.47,0-.49.11-.91.33-1.26.22-.35.5-.64.85-.86.35-.22.74-.38,1.17-.49.43-.11.87-.16,1.29-.16.55,0,1.06.05,1.53.14.46.09.88.26,1.24.49.36.23.64.55.86.94.21.4.34.89.38,1.48h-1.61c-.02-.31-.11-.58-.24-.78-.14-.21-.32-.37-.53-.5-.21-.12-.45-.22-.71-.27-.26-.06-.52-.09-.78-.09-.24,0-.48.02-.73.06-.25.04-.47.1-.67.2-.2.1-.37.22-.49.38-.13.16-.19.36-.19.61,0,.28.1.51.29.69.19.18.44.33.75.45.3.12.64.22,1.02.3s.76.17,1.13.25c.4.09.8.2,1.18.32.38.13.72.29,1.02.5.3.21.54.47.72.78.18.32.27.71.27,1.17,0,.59-.12,1.08-.37,1.47-.25.39-.57.71-.96.94-.4.24-.84.41-1.34.5-.5.09-.99.14-1.48.14-.54,0-1.06-.06-1.55-.17-.49-.11-.93-.3-1.3-.56-.38-.26-.68-.6-.91-1.02-.23-.42-.35-.93-.38-1.54h1.61c.01.35.09.65.25.9"/>
      <path class="cls-2" d="m248.02,27.49c-.73.55-1.65.83-2.76.83-.78,0-1.46-.13-2.03-.38-.57-.25-1.05-.6-1.44-1.06-.39-.45-.68-.99-.88-1.62-.2-.63-.31-1.31-.33-2.06,0-.74.11-1.42.34-2.04s.54-1.15.95-1.6c.41-.45.89-.81,1.45-1.06.56-.25,1.17-.38,1.84-.38.87,0,1.59.18,2.16.54.57.36,1.03.82,1.38,1.37.35.55.58,1.16.72,1.81.13.65.18,1.28.16,1.87h-7.31c-.01.43.04.83.15,1.22.11.38.3.72.55,1.02.25.3.57.53.96.71.39.18.85.26,1.38.26.68,0,1.24-.16,1.67-.47.43-.31.72-.79.86-1.43h1.59c-.21,1.1-.69,1.92-1.42,2.47m-.39-6.27c-.15-.34-.34-.63-.59-.88s-.54-.44-.87-.59c-.33-.14-.7-.22-1.11-.22s-.79.07-1.12.22c-.33.14-.62.34-.86.59-.24.25-.43.54-.57.88-.14.33-.22.69-.25,1.07h5.61c-.03-.38-.11-.74-.25-1.08"/>
      <polygon class="cls-2" points="115.37 36.66 115.37 38.17 107.85 38.17 107.85 42.45 114.86 42.45 114.86 43.96 107.85 43.96 107.85 48.63 115.42 48.63 115.42 50.14 106.06 50.14 106.06 36.66 115.37 36.66"/>
      <path class="cls-2" d="m120.52,40.38v1.44h.04c.73-1.11,1.78-1.66,3.15-1.66.6,0,1.15.13,1.64.38.49.25.84.68,1.04,1.28.33-.53.76-.94,1.29-1.23.54-.29,1.12-.43,1.77-.43.49,0,.93.05,1.33.16.4.11.74.27,1.02.5.28.23.5.52.66.88.16.36.24.79.24,1.29v7.16h-1.61v-6.4c0-.3-.02-.59-.07-.85-.05-.26-.15-.49-.28-.69-.14-.19-.33-.35-.58-.46-.25-.11-.56-.17-.95-.17-.79,0-1.41.23-1.87.68-.45.45-.68,1.06-.68,1.81v6.08h-1.6v-6.4c0-.31-.03-.6-.09-.87-.06-.26-.15-.49-.29-.69-.14-.2-.32-.35-.56-.45-.23-.11-.53-.16-.9-.16-.47,0-.87.09-1.2.28-.33.19-.61.42-.81.68-.21.26-.36.54-.45.82-.1.28-.14.52-.14.71v6.08h-1.6v-9.76h1.51Z"/>
      <path class="cls-2" d="m138.57,40.38v1.32h.04c.26-.54.68-.93,1.25-1.18.57-.25,1.19-.37,1.87-.37.76,0,1.41.14,1.97.42.56.28,1.03.65,1.4,1.12.37.47.65,1.02.84,1.63.19.62.28,1.27.28,1.96s-.09,1.35-.28,1.96c-.18.62-.46,1.15-.83,1.62-.37.46-.84.82-1.4,1.08-.56.26-1.21.4-1.95.4-.24,0-.51-.02-.8-.08-.3-.05-.59-.13-.88-.24-.29-.11-.56-.27-.82-.46-.26-.2-.48-.44-.65-.73h-.04v5.02h-1.6v-13.48h1.6Zm5.77,3.46c-.12-.43-.3-.82-.55-1.16-.25-.34-.56-.61-.94-.81s-.84-.3-1.35-.3c-.54,0-1,.11-1.38.32-.38.21-.69.49-.93.84-.24.35-.41.74-.52,1.18-.11.44-.16.89-.16,1.34,0,.48.06.94.17,1.39.11.45.29.84.54,1.18.24.34.56.61.95.82.39.21.86.31,1.42.31s1.02-.11,1.39-.32c.37-.21.67-.5.9-.85.23-.35.39-.76.49-1.21.1-.45.15-.92.15-1.4,0-.45-.06-.9-.18-1.33"/>
      <path class="cls-2" d="m151.43,40.38v2.06h.04c.39-.79.87-1.38,1.43-1.76.57-.38,1.28-.55,2.15-.53v1.7c-.64,0-1.19.09-1.64.26-.45.18-.82.43-1.1.77-.28.34-.48.75-.6,1.24-.13.49-.19,1.04-.19,1.67v4.34h-1.6v-9.76h1.51Z"/>
      <path class="cls-2" d="m164.95,49.52c-.73.55-1.65.83-2.76.83-.78,0-1.46-.13-2.03-.38-.57-.25-1.05-.6-1.44-1.06-.39-.45-.68-.99-.88-1.62-.2-.63-.31-1.31-.33-2.06,0-.74.11-1.42.34-2.04.23-.62.54-1.15.95-1.6.41-.45.89-.81,1.45-1.06.56-.25,1.17-.38,1.84-.38.87,0,1.59.18,2.16.54.57.36,1.03.82,1.38,1.37.35.55.58,1.16.72,1.81.13.65.18,1.28.16,1.87h-7.31c-.01.43.04.83.15,1.22.11.38.29.72.55,1.02.25.3.57.53.96.71.39.18.85.26,1.38.26.68,0,1.24-.16,1.67-.47.43-.31.72-.79.86-1.43h1.59c-.21,1.1-.69,1.92-1.42,2.47m-.39-6.27c-.15-.34-.34-.63-.59-.88s-.54-.44-.87-.59c-.33-.14-.7-.22-1.1-.22s-.79.07-1.12.22c-.33.14-.62.34-.86.59-.24.25-.43.54-.57.88-.14.33-.22.69-.25,1.07h5.61c-.03-.38-.11-.74-.25-1.08"/>
      <path class="cls-2" d="m177.06,49.52c-.73.55-1.65.83-2.76.83-.78,0-1.46-.13-2.03-.38-.57-.25-1.05-.6-1.44-1.06-.39-.45-.68-.99-.88-1.62-.2-.63-.31-1.31-.33-2.06,0-.74.11-1.42.34-2.04.23-.62.54-1.15.95-1.6.41-.45.89-.81,1.45-1.06.56-.25,1.17-.38,1.84-.38.87,0,1.59.18,2.16.54.57.36,1.03.82,1.38,1.37.35.55.58,1.16.72,1.81.13.65.18,1.28.16,1.87h-7.31c-.01.43.04.83.15,1.22.11.38.29.72.55,1.02.25.3.57.53.96.71.39.18.85.26,1.38.26.68,0,1.24-.16,1.67-.47.43-.31.72-.79.86-1.43h1.59c-.21,1.1-.69,1.92-1.42,2.47m-.39-6.27c-.15-.34-.34-.63-.59-.88s-.54-.44-.87-.59c-.33-.14-.7-.22-1.1-.22s-.79.07-1.12.22c-.33.14-.62.34-.86.59-.24.25-.43.54-.57.88-.14.33-.22.69-.25,1.07h5.61c-.03-.38-.11-.74-.25-1.08"/>
      <path class="cls-2" d="m183.74,40.38v1.55h.04c.67-1.18,1.72-1.77,3.17-1.77.64,0,1.18.09,1.6.26s.77.42,1.04.74c.26.32.45.69.56,1.12.11.43.16.92.16,1.44v6.42h-1.6v-6.61c0-.6-.18-1.08-.53-1.43-.35-.35-.84-.53-1.45-.53-.49,0-.92.08-1.27.23-.36.15-.66.37-.9.64-.24.28-.42.6-.54.97-.12.37-.18.78-.18,1.22v5.51h-1.6v-9.76h1.51Z"/>
      <path class="cls-2" d="m201.68,50.14v-1.32h-.04c-.27.54-.68.93-1.25,1.17-.57.24-1.19.36-1.87.36-.76,0-1.41-.14-1.97-.42-.56-.28-1.02-.65-1.4-1.11-.37-.47-.65-1.01-.84-1.62-.19-.62-.28-1.27-.28-1.96s.09-1.35.27-1.96c.18-.62.46-1.15.83-1.61.37-.46.84-.83,1.4-1.1.56-.27,1.21-.41,1.95-.41.25,0,.52.02.81.08.29.05.58.14.87.26.29.12.56.28.82.47.26.2.48.44.65.73h.04v-5.02h1.6v13.48h-1.6Zm-5.77-3.47c.12.43.3.82.55,1.16.25.34.56.61.94.81.38.2.83.3,1.35.3s1-.11,1.38-.32c.38-.21.69-.49.93-.84.24-.35.41-.74.52-1.18.11-.44.16-.89.16-1.34,0-.48-.06-.94-.17-1.39-.11-.45-.29-.84-.54-1.18-.25-.34-.56-.61-.95-.82-.39-.21-.86-.31-1.42-.31s-1,.11-1.38.32c-.38.21-.68.5-.91.85-.23.35-.39.76-.49,1.21-.1.45-.15.92-.15,1.4,0,.45.06.9.18,1.33"/>
      <path class="cls-2" d="m207.59,36.66h1.61v1.96h-1.61v-1.96Zm1.61,13.48h-1.61v-9.76h1.61v9.76Z"/>
      <path class="cls-2" d="m214.97,40.38v1.44h.04c.73-1.11,1.78-1.66,3.15-1.66.61,0,1.15.13,1.64.38.49.25.84.68,1.04,1.28.33-.53.76-.94,1.29-1.23s1.12-.43,1.77-.43c.49,0,.93.05,1.33.16.4.11.74.27,1.02.5.28.23.5.52.66.88.16.36.24.79.24,1.29v7.16h-1.61v-6.4c0-.3-.02-.59-.07-.85-.05-.26-.15-.49-.28-.69-.14-.19-.33-.35-.58-.46-.25-.11-.56-.17-.95-.17-.79,0-1.41.23-1.87.68s-.68,1.06-.68,1.81v6.08h-1.61v-6.4c0-.31-.03-.6-.08-.87-.06-.26-.15-.49-.29-.69-.14-.2-.32-.35-.56-.45-.23-.11-.53-.16-.9-.16-.47,0-.86.09-1.2.28-.33.19-.61.42-.81.68-.21.26-.36.54-.45.82-.1.28-.14.52-.14.71v6.08h-1.6v-9.76h1.51Z"/>
      <path class="cls-2" d="m238.29,49.52c-.73.55-1.65.83-2.76.83-.78,0-1.46-.13-2.03-.38-.57-.25-1.05-.6-1.44-1.06-.39-.45-.68-.99-.88-1.62-.2-.63-.31-1.31-.33-2.06,0-.74.11-1.42.34-2.04s.54-1.15.95-1.6c.41-.45.89-.81,1.45-1.06.56-.25,1.17-.38,1.84-.38.87,0,1.59.18,2.16.54.57.36,1.03.82,1.38,1.37.35.55.58,1.16.72,1.81.13.65.18,1.28.16,1.87h-7.31c-.01.43.04.83.15,1.22.11.38.3.72.55,1.02.25.3.57.53.96.71.39.18.85.26,1.38.26.68,0,1.24-.16,1.67-.47.43-.31.72-.79.86-1.43h1.59c-.21,1.1-.69,1.92-1.42,2.47m-.39-6.27c-.15-.34-.34-.63-.59-.88s-.54-.44-.87-.59c-.33-.14-.7-.22-1.11-.22s-.79.07-1.12.22c-.33.14-.62.34-.86.59-.24.25-.43.54-.57.88-.14.33-.22.69-.25,1.07h5.61c-.03-.38-.11-.74-.25-1.08"/>
      <path class="cls-2" d="m244.97,40.38v1.55h.04c.67-1.18,1.72-1.77,3.17-1.77.64,0,1.18.09,1.6.26.43.18.77.42,1.04.74.26.32.45.69.56,1.12.11.43.16.92.16,1.44v6.42h-1.61v-6.61c0-.6-.18-1.08-.53-1.43-.35-.35-.84-.53-1.46-.53-.49,0-.91.08-1.27.23-.36.15-.66.37-.9.64-.24.28-.42.6-.54.97-.12.37-.18.78-.18,1.22v5.51h-1.6v-9.76h1.51Z"/>
      <path class="cls-2" d="m259.85,40.38v1.42h-1.94v6.06c0,.19.01.34.05.45.03.11.09.2.18.26.09.06.21.1.37.12.16.02.36.03.61.03h.74v1.42h-1.23c-.42,0-.77-.03-1.07-.09-.3-.06-.54-.16-.72-.31-.18-.15-.32-.37-.41-.64-.09-.28-.13-.64-.13-1.1v-6.21h-1.66v-1.42h1.66v-2.93h1.61v2.93h1.94Z"/>
      <path class="cls-2" d="m262.88,43.26c.2-.62.5-1.16.91-1.62.4-.46.9-.82,1.49-1.09.59-.26,1.27-.4,2.04-.4s1.46.13,2.05.4c.58.26,1.08.63,1.48,1.09.4.46.7,1,.91,1.62.2.62.3,1.29.3,2.01s-.1,1.39-.3,2c-.2.62-.5,1.15-.91,1.62-.4.46-.9.82-1.48,1.08-.59.26-1.27.39-2.05.39s-1.45-.13-2.04-.39c-.59-.26-1.09-.62-1.49-1.08-.4-.46-.7-1-.91-1.62-.2-.62-.3-1.28-.3-2s.1-1.39.3-2.01m1.63,3.59c.16.46.37.84.65,1.15.28.31.6.54.97.71.37.16.76.25,1.18.25s.81-.08,1.18-.25c.37-.16.7-.4.97-.71.28-.31.49-.69.65-1.15.16-.46.24-.98.24-1.58s-.08-1.12-.24-1.58c-.16-.46-.38-.85-.65-1.16-.28-.32-.6-.55-.97-.72-.37-.16-.76-.24-1.18-.24s-.81.08-1.18.24c-.37.16-.7.4-.97.72-.28.31-.49.7-.65,1.16-.16.46-.24.99-.24,1.58s.08,1.12.24,1.58"/>
      <path class="cls-2" d="m277.03,47.96c.15.25.35.44.59.59.25.15.52.25.83.31.31.06.63.1.95.1.25,0,.52-.02.79-.06.28-.04.53-.11.76-.21.23-.1.43-.25.58-.44.15-.19.23-.44.23-.75,0-.41-.16-.73-.47-.94-.32-.21-.71-.39-1.18-.52-.47-.13-.98-.25-1.54-.36-.55-.11-1.07-.26-1.54-.45-.47-.2-.86-.47-1.18-.82-.31-.35-.47-.84-.47-1.47,0-.49.11-.91.33-1.26.22-.35.5-.64.85-.86.35-.22.74-.38,1.17-.49.43-.11.87-.16,1.29-.16.55,0,1.06.05,1.53.14.46.09.88.26,1.24.49.36.23.64.55.86.94.21.4.34.89.38,1.48h-1.61c-.02-.31-.11-.58-.24-.78-.14-.21-.32-.37-.53-.5-.21-.12-.45-.22-.71-.27-.26-.06-.52-.09-.78-.09-.24,0-.48.02-.73.06-.25.04-.47.1-.67.2-.2.1-.37.22-.49.38-.13.16-.19.36-.19.61,0,.28.1.51.29.69.19.18.44.33.75.45.3.12.64.22,1.02.3s.76.17,1.13.25c.4.09.8.2,1.18.32.38.13.72.29,1.02.5.3.21.54.47.72.78.18.32.27.71.27,1.17,0,.59-.12,1.08-.37,1.47-.25.39-.57.71-.96.94-.4.24-.84.41-1.34.5-.5.09-.99.14-1.48.14-.54,0-1.06-.06-1.55-.17-.49-.11-.93-.3-1.3-.56-.38-.26-.68-.6-.91-1.02-.23-.42-.35-.93-.38-1.54h1.61c.01.35.09.65.25.9"/>
    </g>
  </g>
</svg>