<?xml version="1.0" encoding="UTF-8"?>
<svg id="Camada_2" data-name="Camada 2" xmlns="http://www.w3.org/2000/svg" viewBox="0 0 70 14.48">
  <defs>
    <style>
      .cls-1 {
        fill: #3a683d;
      }

      .cls-2 {
        fill: #191c17;
      }

      .cls-3 {
        fill: #a8d42e;
      }
    </style>
  </defs>
  <g id="Camada_1-2" data-name="Camada 1">
    <g>
      <g>
        <rect class="cls-1" width="5.93" height="14.23"/>
        <rect class="cls-3" x="7.11" y="1.19" width="5.93" height="7.11"/>
      </g>
      <g>
        <path class="cls-2" d="m22.31,5.1c-.32-.21-.68-.35-1.08-.44-.41-.09-.83-.13-1.28-.13h-2.88v9.7h1.15v-4.36h1.95c.34,0,.69-.04,1.07-.12.37-.08.72-.22,1.03-.42.32-.2.57-.47.77-.82.2-.35.3-.79.3-1.32,0-.5-.09-.93-.28-1.27-.19-.34-.44-.62-.75-.82Zm-.74,3.32c-.36.26-.83.39-1.4.39h-1.95v-3.21h1.95c.58,0,1.04.13,1.4.39.36.26.54.66.54,1.21s-.18.95-.54,1.21Z"/>
        <path class="cls-2" d="m29.63,8.93c.43-.44.64-1.01.64-1.73,0-.6-.11-1.08-.34-1.43-.23-.35-.53-.62-.89-.8-.37-.18-.78-.3-1.24-.36-.46-.05-.93-.08-1.39-.08h-2.48v9.7h1.15v-4.36h1.48l2.63,4.36h1.41l-2.75-4.47c.76-.12,1.35-.4,1.78-.84Zm-3.52-.12h-1.03v-3.21h1.62c.28,0,.56.02.84.05.28.04.53.11.75.23.22.11.4.28.54.49.14.21.21.49.21.84,0,.4-.09.71-.28.92-.19.21-.42.37-.71.47-.29.1-.6.16-.95.18-.34.02-.67.03-.99.03Z"/>
        <polygon class="cls-2" points="63.87 4.53 62.56 4.53 59.16 12.51 59.14 12.51 55.75 4.53 54.44 4.53 58.56 14.23 59.74 14.23 63.87 4.53"/>
        <path class="cls-2" d="m35.57,14.47c-.74,0-1.42-.13-2.03-.38-.62-.26-1.15-.61-1.6-1.06-.45-.45-.8-.99-1.05-1.62-.25-.63-.38-1.3-.38-2.03s.13-1.41.38-2.03c.25-.63.6-1.16,1.05-1.62.45-.45.99-.81,1.6-1.06.62-.26,1.29-.38,2.03-.38s1.42.13,2.03.38c.62.26,1.15.61,1.6,1.06.45.45.8.99,1.05,1.62.25.63.38,1.3.38,2.03s-.13,1.41-.38,2.03c-.25.63-.6,1.16-1.05,1.62-.45.45-.99.81-1.6,1.06-.62.26-1.29.38-2.03.38Zm0-1.07c.57,0,1.08-.1,1.55-.32.47-.21.87-.5,1.21-.86.34-.37.6-.79.79-1.28.19-.49.28-1.01.28-1.57s-.09-1.08-.28-1.57c-.19-.49-.45-.92-.79-1.28-.34-.37-.74-.65-1.21-.86-.47-.21-.99-.32-1.55-.32s-1.08.11-1.55.32c-.47.21-.87.5-1.21.86-.34.37-.6.79-.79,1.28-.19.49-.28,1.01-.28,1.57s.09,1.08.28,1.57c.19.49.45.92.79,1.28.34.37.74.65,1.21.86.47.21.99.32,1.55.32Z"/>
        <path class="cls-2" d="m63.87,4.53h6.1v1.07h-4.95v3.07h4.62v1.07h-4.62v3.42h4.98v1.07h-6.13V4.53Z"/>
        <path class="cls-2" d="m53.16,4.53h-1.08l-2.69,6.12c-.59,1.33-.88,1.85-1.64,2.3-.04.02-.07.04-.11.06-.03.02-.06.03-.09.05-.41.2-.86.32-1.37.34-.07,0-.15,0-.22,0-.55,0-1.05-.1-1.5-.32-.45-.21-.84-.5-1.16-.86-.32-.36-.58-.79-.76-1.27-.18-.49-.27-1.02-.27-1.58,0-.53.09-1.04.27-1.53.18-.49.44-.92.77-1.29.33-.37.72-.66,1.17-.88.45-.22.95-.33,1.49-.33.47,0,.91.1,1.34.29.43.2.79.49,1.08.88l1-.72c-.41-.54-.92-.93-1.53-1.16-.61-.24-1.24-.36-1.9-.36-.72,0-1.38.13-1.99.4-.6.27-1.12.63-1.56,1.08-.33.34-.6.73-.82,1.16,0,0,0,0,0,0-.03.07-.07.14-.1.21,0,0,0,0,0,.01-.03.07-.06.15-.09.22-.24.62-.36,1.29-.36,2s.13,1.42.38,2.04c.25.62.6,1.16,1.04,1.61.44.45.97.81,1.57,1.06.6.26,1.25.38,1.95.38.1,0,.19,0,.29,0,0,0,.01,0,.02,0,.08,0,.17,0,.25-.02.03,0,.06,0,.1-.01.05,0,.11-.01.16-.02.05,0,.09-.01.14-.02.04,0,.07-.01.11-.02.05-.01.11-.02.16-.03.03,0,.05-.01.08-.02.06-.01.12-.03.18-.05.02,0,.04-.01.06-.02.06-.02.12-.04.18-.06.01,0,.03-.01.04-.02.06-.02.12-.05.18-.07.01,0,.02,0,.03-.01.68-.29,1.22-.76,1.65-1.37.13-.18.25-.38.36-.59l.16-.31h4.85l.99,2.38h1.34l-4.12-9.7Zm-2.6,6.25l2.01-4.77h.03l1.92,4.77h-3.96Z"/>
      </g>
    </g>
  </g>
</svg>